<svg id="Layer_1" data-name="Layer 1" xmlns="http://www.w3.org/2000/svg" viewBox="0 0 375 321.77"><defs><style>.cls-1{fill:#fff;}.cls-2{fill:none;stroke:#132235;stroke-miterlimit:10;stroke-width:5px;}</style></defs><g id="Delay"><rect class="cls-1" width="375" height="321.77"/><path class="cls-2" d="M202.12,125.8H91.74c-18.7,0-33.85,15.89-33.85,35.5S73,196.8,91.74,196.8H312.42"/><polyline class="cls-2" points="210.74 125.8 304.58 125.8 312.42 125.8"/><path class="cls-2" d="M312.42,189.46H99.57c-18.69,0-33.85-12.57-33.85-28.08S80.88,133.3,99.57,133.3H305S279,167,312.42,189.46Z"/><path class="cls-2" d="M311.24,46.7H90.55C71.86,46.7,56.7,62.59,56.7,82.2s15.16,35.5,33.85,35.5h146"/><line class="cls-2" x1="248.59" y1="117.7" x2="311.24" y2="117.7"/><path class="cls-2" d="M305,54.08H99.57c-18.69,0-33.85,12.57-33.85,28.08s15.16,28.08,33.85,28.08H312.42S285.43,86.93,305,54.08Z"/><path class="cls-2" d="M185.19,206.51H74.8C56.11,206.51,41,222.4,41,242s15.16,35.51,33.85,35.51h265"/><line class="cls-2" x1="199.04" y1="206.51" x2="341.3" y2="206.51"/><path class="cls-2" d="M289.91,213.89H84.5c-18.69,0-33.85,12.57-33.85,28.08s15.16,28.08,33.85,28.08H330.28s-28.53-25.4,0-56.16Z"/></g></svg>